<svg width="200" height="200" viewBox="0 0 200 200" fill="none" xmlns="http://www.w3.org/2000/svg">
<mask id="mask0_3_53" style="mask-type:alpha" maskUnits="userSpaceOnUse" x="0" y="0" width="200" height="200">
<rect width="200" height="200" fill="#D9D9D9"/>
</mask>
<g mask="url(#mask0_3_53)">
<path d="M79.3271 175.001C71.2604 175.001 64.3563 172.21 58.6146 166.628C52.8715 161.046 50 154.329 50 146.476C50 142.469 50.9403 138.738 52.8208 135.282C54.7014 131.825 57.7139 128.291 61.8583 124.68C64.4014 122.565 66.5889 120.335 68.4208 117.99C70.2542 115.645 72.2229 113.334 74.3271 111.059C68.0979 101.508 63.3674 91.596 60.1354 81.3237C56.9035 71.0501 55.2875 60.8765 55.2875 50.8029C55.2875 44.6696 56.0514 40.1182 57.5792 37.1487C59.1069 34.1779 61.3882 32.6925 64.4229 32.6925C69.0271 32.6925 73.8403 35.5772 78.8625 41.3467C83.8833 47.1161 88.1514 53.8362 91.6667 61.5071C93.9847 66.6348 95.825 71.9848 97.1875 77.5571C98.55 83.1279 99.4875 88.6703 100 94.1842C100.512 88.6703 101.476 83.1279 102.892 77.5571C104.308 71.9848 106.138 66.6348 108.381 61.5071C111.758 53.8362 115.983 47.1161 121.058 41.3467C126.133 35.5772 130.973 32.6925 135.577 32.6925C138.612 32.6925 140.893 34.1779 142.421 37.1487C143.949 40.1182 144.713 44.6696 144.713 50.8029C144.713 60.8765 143.097 71.0501 139.865 81.3237C136.633 91.596 131.902 101.508 125.673 111.059C127.777 113.334 129.746 115.645 131.579 117.99C133.411 120.335 135.599 122.565 138.142 124.68C142.286 128.291 145.299 131.825 147.179 135.282C149.06 138.738 150 142.469 150 146.476C150 154.329 147.128 161.046 141.385 166.628C135.644 172.21 128.74 175.001 120.673 175.001C115.491 175.001 110.75 174.146 106.45 172.436L100 169.872L93.55 172.436C89.25 174.146 84.509 175.001 79.3271 175.001ZM79.9688 166.667C82.8424 166.667 85.8764 166.259 89.0708 165.442C92.2653 164.624 95.2514 163.452 98.0292 161.924C96.7153 161.229 95.5132 160.182 94.4229 158.782C93.3326 157.383 92.7875 156.166 92.7875 155.13C92.7875 154.019 93.4799 153.127 94.8646 152.453C96.2479 151.779 97.9597 151.442 100 151.442C101.933 151.442 103.565 151.806 104.896 152.532C106.226 153.258 106.892 154.124 106.892 155.13C106.892 156.166 106.347 157.383 105.256 158.782C104.166 160.182 102.964 161.229 101.65 161.924C104.428 163.452 107.414 164.624 110.608 165.442C113.803 166.259 116.838 166.667 119.713 166.667C125.758 166.667 130.876 164.707 135.065 160.786C139.252 156.865 141.346 152.095 141.346 146.476C141.346 143.548 140.572 140.85 139.023 138.382C137.473 135.914 135.096 133.339 131.892 130.657C130.161 129.204 128.831 127.96 127.9 126.924C126.971 125.888 125.812 124.488 124.423 122.726C119.648 116.476 115.781 112.515 112.821 110.842C109.861 109.17 105.534 108.334 99.8396 108.334C94.1451 108.334 89.8104 109.17 86.8354 110.842C83.859 112.515 79.9993 116.476 75.2563 122.726C73.8674 124.488 72.7083 125.888 71.7792 126.924C70.85 127.96 69.5194 129.204 67.7875 130.657C64.5833 133.339 62.2062 135.914 60.6562 138.382C59.1076 140.85 58.3333 143.548 58.3333 146.476C58.3333 152.095 60.4271 156.865 64.6146 160.786C68.8035 164.707 73.9215 166.667 79.9688 166.667ZM87.5 139.584C86.3889 139.584 85.4167 138.959 84.5833 137.709C83.75 136.459 83.3333 135.001 83.3333 133.334C83.3333 131.667 83.75 130.209 84.5833 128.959C85.4167 127.709 86.3889 127.084 87.5 127.084C88.6111 127.084 89.5833 127.709 90.4167 128.959C91.25 130.209 91.6667 131.667 91.6667 133.334C91.6667 135.001 91.25 136.459 90.4167 137.709C89.5833 138.959 88.6111 139.584 87.5 139.584ZM112.5 139.584C111.389 139.584 110.417 138.959 109.583 137.709C108.75 136.459 108.333 135.001 108.333 133.334C108.333 131.667 108.75 130.209 109.583 128.959C110.417 127.709 111.389 127.084 112.5 127.084C113.611 127.084 114.583 127.709 115.417 128.959C116.25 130.209 116.667 131.667 116.667 133.334C116.667 135.001 116.25 136.459 115.417 137.709C114.583 138.959 113.611 139.584 112.5 139.584ZM80.4333 105.017C82.175 103.692 84.0444 102.667 86.0417 101.94C88.0389 101.214 90.2181 100.717 92.5792 100.449C92.3014 94.4237 91.4014 88.3265 89.8792 82.1571C88.3569 75.9862 86.3299 70.0855 83.7979 64.455C81.0521 58.2591 77.975 53.1182 74.5667 49.0321C71.1583 44.9446 67.8569 42.3453 64.6625 41.2341C64.3847 42.2814 64.1417 43.5453 63.9333 45.0258C63.725 46.505 63.6208 48.2703 63.6208 50.3216C63.6208 59.2314 65.0875 68.4404 68.0208 77.9487C70.9542 87.4585 75.0917 96.4814 80.4333 105.017ZM119.567 105.017C124.908 96.4814 129.046 87.4585 131.979 77.9487C134.912 68.4404 136.379 59.2314 136.379 50.3216C136.379 48.2703 136.275 46.505 136.067 45.0258C135.858 43.5453 135.615 42.2814 135.338 41.2341C132.143 42.3453 128.842 44.9446 125.433 49.0321C122.025 53.1182 118.948 58.2591 116.202 64.455C113.702 70.0855 111.691 75.9862 110.169 82.1571C108.647 88.3265 107.731 94.4237 107.421 100.449C109.717 100.685 111.864 101.174 113.862 101.915C115.86 102.658 117.761 103.692 119.567 105.017Z" fill="#1C1B1F"/>
</g>
</svg>
